<svg xmlns="http://www.w3.org/2000/svg" xmlns:xlink="http://www.w3.org/1999/xlink" width="358" zoomAndPan="magnify" viewBox="0 0 268.5 142.499996" height="190" preserveAspectRatio="xMidYMid meet" version="1.0"><defs><g/><clipPath id="3911613a03"><path d="M 0.21875 0 L 267.78125 0 L 267.78125 142 L 0.21875 142 Z M 0.21875 0 " clip-rule="nonzero"/></clipPath></defs><g clip-path="url(#3911613a03)"><path stroke-linecap="butt" transform="matrix(0.763229, 0, 0, 0.763229, 4.582386, 0.0205808)" fill="none" stroke-linejoin="miter" d="M 45.473484 25.02593 L 45.473484 44.438726 C 41.123134 44.438726 37.617264 45.595407 34.955874 47.908769 C 32.294484 50.206778 30.963788 52.985883 30.963788 56.251205 L 30.963788 57.873629 L 44.142789 57.873629 L 44.142789 75.275028 L 30.963788 75.275028 L 30.963788 125.002083 L 12.108861 125.002083 L 12.108861 75.275028 L 2.921946 75.275028 L 2.921946 57.873629 L 12.108861 57.873629 L 12.108861 56.937024 C 12.108861 50.723702 13.608452 45.226907 16.617871 40.44664 C 19.627289 35.661256 23.670555 31.899483 28.757905 29.151085 C 33.865727 26.402688 39.439293 25.02593 45.473484 25.02593 Z M 62.096938 46.030442 C 59.154054 46.030442 56.600143 44.965886 54.440322 42.84701 C 52.275384 40.707661 51.190355 38.174222 51.190355 35.251811 C 51.190355 32.590421 52.275384 30.200287 54.440322 28.081411 C 56.600143 25.957417 59.154054 24.897979 62.096938 24.897979 C 65.28037 24.897979 67.951996 25.936945 70.116935 28.014877 C 72.302346 30.092808 73.392492 32.503414 73.392492 35.251811 C 73.392492 38.174222 72.302346 40.707661 70.116935 42.84701 C 67.951996 44.965886 65.28037 46.030442 62.096938 46.030442 Z M 71.642116 57.873629 L 71.642116 125.002083 L 52.782071 125.002083 L 52.782071 57.873629 Z M 111.670451 105.200315 L 98.91625 125.002083 L 76.842064 125.002083 L 101.152841 89.231973 L 81.484143 57.873629 L 101.02489 57.873629 L 111.670451 75.402979 L 122.188061 57.873629 L 141.85676 57.873629 L 122.024283 89.231973 L 146.498839 125.002083 L 124.429771 125.002083 Z M 175.738306 101.336181 L 170.415525 106.403059 L 170.415525 125.002083 L 151.55548 125.002083 L 151.55548 25.936945 L 170.415525 25.936945 L 170.415525 84.589894 L 199.010118 57.873629 L 222.409881 57.873629 L 188.656286 89.231973 L 223.873645 125.002083 L 199.818771 125.002083 Z M 267.991309 57.873629 L 286.882062 57.873629 L 286.882062 125.002083 L 267.991309 125.002083 L 267.991309 120.226935 C 266.583843 122.176915 264.280716 123.702096 261.076812 124.807597 C 257.898498 125.907979 254.761128 126.46073 251.664702 126.46073 C 245.543505 126.46073 239.990411 124.869014 235.015658 121.690699 C 230.061378 118.486795 226.100001 114.25416 223.136645 108.997914 C 220.168171 103.716078 218.689052 97.88661 218.689052 91.504391 C 218.689052 85.035165 220.193761 79.134044 223.198062 73.811263 C 226.20748 68.488482 230.209802 64.260966 235.210145 61.123596 C 240.23096 57.960636 245.717519 56.384274 251.664702 56.384274 C 254.674121 56.384274 257.791018 57.008677 261.015395 58.26772 C 264.260244 59.501172 266.583843 60.913756 267.991309 62.515708 Z M 253.51744 107.733754 C 257.949678 107.733754 261.60909 106.229045 264.485439 103.219627 C 267.366906 100.189736 268.80508 96.284657 268.80508 91.504391 C 268.80508 86.806013 267.366906 82.931643 264.485439 79.88128 C 261.60909 76.810445 257.949678 75.275028 253.51744 75.275028 C 249.16709 75.275028 245.466734 76.810445 242.416371 79.88128 C 239.366008 82.931643 237.840827 86.806013 237.840827 91.504391 C 237.840827 96.284657 239.366008 100.189736 242.416371 103.219627 C 245.466734 106.229045 249.16709 107.733754 253.51744 107.733754 Z M 337.412653 56.676004 L 337.412653 76.21675 C 335.636686 75.587229 333.635526 75.275028 331.40917 75.275028 C 327.770231 75.275028 324.602153 76.626195 321.899818 79.32853 C 319.192365 82.035983 317.841197 86.094603 317.841197 91.504391 L 317.841197 125.002083 L 298.981152 125.002083 L 298.981152 57.873629 L 317.841197 57.873629 L 317.841197 62.515708 C 319.893539 60.289353 322.242728 58.707873 324.883646 57.776386 C 327.545036 56.850017 330.165482 56.384274 332.739865 56.384274 C 333.538283 56.384274 334.295755 56.384274 335.012283 56.384274 C 335.723693 56.384274 336.527229 56.481517 337.412653 56.676004 Z M 337.412653 56.676004 " stroke="#000000" stroke-width="18.281725" stroke-opacity="1" stroke-miterlimit="4"/></g><g fill="#ffffff" fill-opacity="1"><g transform="translate(4.582386, 95.424191)"><g><path d="M 34.703125 -76.296875 L 34.703125 -61.484375 C 31.390625 -61.484375 28.71875 -60.601562 26.6875 -58.84375 C 24.65625 -57.09375 23.640625 -54.960938 23.640625 -52.453125 L 23.640625 -51.234375 L 33.6875 -51.234375 L 33.6875 -37.953125 L 23.640625 -37.953125 L 23.640625 0 L 9.234375 0 L 9.234375 -37.953125 L 2.234375 -37.953125 L 2.234375 -51.234375 L 9.234375 -51.234375 L 9.234375 -51.953125 C 9.234375 -56.691406 10.382812 -60.882812 12.6875 -64.53125 C 14.988281 -68.1875 18.082031 -71.0625 21.96875 -73.15625 C 25.851562 -75.25 30.097656 -76.296875 34.703125 -76.296875 Z M 34.703125 -76.296875 "/></g></g></g><g fill="#ffffff" fill-opacity="1"><g transform="translate(39.789454, 95.424191)"><g><path d="M 12.171875 -60.265625 C 9.941406 -60.265625 8 -61.078125 6.34375 -62.703125 C 4.6875 -64.328125 3.859375 -66.253906 3.859375 -68.484375 C 3.859375 -70.515625 4.6875 -72.34375 6.34375 -73.96875 C 8 -75.59375 9.941406 -76.40625 12.171875 -76.40625 C 14.609375 -76.40625 16.65625 -75.609375 18.3125 -74.015625 C 19.96875 -72.429688 20.796875 -70.585938 20.796875 -68.484375 C 20.796875 -66.253906 19.96875 -64.328125 18.3125 -62.703125 C 16.65625 -61.078125 14.609375 -60.265625 12.171875 -60.265625 Z M 19.484375 -51.234375 L 19.484375 0 L 5.078125 0 L 5.078125 -51.234375 Z M 19.484375 -51.234375 "/></g></g></g><g fill="#ffffff" fill-opacity="1"><g transform="translate(63.429882, 95.424191)"><g><path d="M 26.375 -15.125 L 16.640625 0 L -0.203125 0 L 18.359375 -27.296875 L 3.34375 -51.234375 L 18.265625 -51.234375 L 26.375 -37.84375 L 34.390625 -51.234375 L 49.421875 -51.234375 L 34.296875 -27.296875 L 52.96875 0 L 36.125 0 Z M 26.375 -15.125 "/></g></g></g><g fill="#ffffff" fill-opacity="1"><g transform="translate(115.175202, 95.424191)"><g><path d="M 23.546875 -18.0625 L 19.484375 -14.203125 L 19.484375 0 L 5.078125 0 L 5.078125 -75.59375 L 19.484375 -75.59375 L 19.484375 -30.84375 L 41.296875 -51.234375 L 59.15625 -51.234375 L 33.390625 -27.296875 L 60.265625 0 L 41.90625 0 Z M 23.546875 -18.0625 "/></g></g></g><g fill="#ffffff" fill-opacity="1"><g transform="translate(168.54339, 95.424191)"><g><path d="M 40.59375 -51.234375 L 55 -51.234375 L 55 0 L 40.59375 0 L 40.59375 -3.65625 C 39.507812 -2.164062 37.75 -1 35.3125 -0.15625 C 32.875 0.6875 30.472656 1.109375 28.109375 1.109375 C 23.441406 1.109375 19.210938 -0.101562 15.421875 -2.53125 C 11.628906 -4.96875 8.597656 -8.195312 6.328125 -12.21875 C 4.066406 -16.25 2.9375 -20.695312 2.9375 -25.5625 C 2.9375 -30.507812 4.085938 -35.007812 6.390625 -39.0625 C 8.691406 -43.125 11.753906 -46.351562 15.578125 -48.75 C 19.398438 -51.15625 23.578125 -52.359375 28.109375 -52.359375 C 30.410156 -52.359375 32.796875 -51.882812 35.265625 -50.9375 C 37.734375 -49.988281 39.507812 -48.90625 40.59375 -47.6875 Z M 29.53125 -13.1875 C 32.90625 -13.1875 35.691406 -14.335938 37.890625 -16.640625 C 40.097656 -18.941406 41.203125 -21.914062 41.203125 -25.5625 C 41.203125 -29.15625 40.097656 -32.117188 37.890625 -34.453125 C 35.691406 -36.785156 32.90625 -37.953125 29.53125 -37.953125 C 26.21875 -37.953125 23.390625 -36.785156 21.046875 -34.453125 C 18.710938 -32.117188 17.546875 -29.15625 17.546875 -25.5625 C 17.546875 -21.914062 18.710938 -18.941406 21.046875 -16.640625 C 23.390625 -14.335938 26.21875 -13.1875 29.53125 -13.1875 Z M 29.53125 -13.1875 "/></g></g></g><g fill="#ffffff" fill-opacity="1"><g transform="translate(227.695422, 95.424191)"><g><path d="M 34.390625 -52.15625 L 34.390625 -37.234375 C 33.046875 -37.710938 31.523438 -37.953125 29.828125 -37.953125 C 27.054688 -37.953125 24.640625 -36.921875 22.578125 -34.859375 C 20.515625 -32.796875 19.484375 -29.695312 19.484375 -25.5625 L 19.484375 0 L 5.078125 0 L 5.078125 -51.234375 L 19.484375 -51.234375 L 19.484375 -47.6875 C 21.035156 -49.382812 22.828125 -50.585938 24.859375 -51.296875 C 26.890625 -52.003906 28.882812 -52.359375 30.84375 -52.359375 C 31.457031 -52.359375 32.035156 -52.359375 32.578125 -52.359375 C 33.117188 -52.359375 33.722656 -52.289062 34.390625 -52.15625 Z M 34.390625 -52.15625 "/></g></g></g></svg>