<svg xmlns="http://www.w3.org/2000/svg" xmlns:xlink="http://www.w3.org/1999/xlink" width="358" zoomAndPan="magnify" viewBox="0 0 268.5 142.499996" height="190" preserveAspectRatio="xMidYMid meet" version="1.0"><defs><g/><clipPath id="0748db6af9"><path d="M 0.21875 0 L 267.78125 0 L 267.78125 142 L 0.21875 142 Z M 0.21875 0 " clip-rule="nonzero"/></clipPath></defs><g clip-path="url(#0748db6af9)"><path stroke-linecap="butt" transform="matrix(0.761224, 0, 0, 0.761224, 4.922427, -5.819273)" fill="none" stroke-linejoin="miter" d="M 45.474993 25.030293 L 45.474993 44.437781 C 41.123446 44.437781 37.618603 45.59751 34.955333 47.911835 C 32.297195 50.205634 30.962994 52.986929 30.962994 56.250589 L 30.962994 57.877288 L 44.145924 57.877288 L 44.145924 75.273213 L 30.962994 75.273213 L 30.962994 124.997847 L 12.10458 124.997847 L 12.10458 75.273213 L 2.919121 75.273213 L 2.919121 57.877288 L 12.10458 57.877288 L 12.10458 56.933084 C 12.10458 50.723919 13.613253 45.228039 16.620336 40.445442 C 19.62742 35.662846 23.671074 31.896295 28.756431 29.15092 C 33.867446 26.400414 39.435169 25.030293 45.474993 25.030293 Z M 62.101186 46.028559 C 59.155682 46.028559 56.600174 44.96633 54.439795 42.847004 C 52.274285 40.707151 51.19153 38.17217 51.19153 35.252323 C 51.19153 32.589053 52.274285 30.197755 54.439795 28.078428 C 56.600174 25.959102 59.155682 24.896873 62.101186 24.896873 C 65.27761 24.896873 67.951143 25.938575 70.116654 28.011718 C 72.30269 30.089992 73.395708 32.501817 73.395708 35.252323 C 73.395708 38.17217 72.30269 40.707151 70.116654 42.847004 C 67.951143 44.96633 65.27761 46.028559 62.101186 46.028559 Z M 71.640721 57.877288 L 71.640721 124.997847 L 52.782307 124.997847 L 52.782307 57.877288 Z M 111.671874 105.200361 L 98.914863 124.997847 L 76.844104 124.997847 L 101.157346 89.231005 L 81.483017 57.877288 L 101.023926 57.877288 L 111.671874 75.401501 L 122.186402 57.877288 L 141.8556 57.877288 L 122.027325 89.231005 L 146.499645 124.997847 L 124.428886 124.997847 Z M 175.739167 101.336311 L 170.412627 106.401142 L 170.412627 124.997847 L 151.554213 124.997847 L 151.554213 25.938575 L 170.412627 25.938575 L 170.412627 84.58696 L 199.010706 57.877288 L 222.410534 57.877288 L 188.655256 89.231005 L 223.873023 124.997847 L 199.82149 124.997847 Z M 267.994015 57.877288 L 286.883218 57.877288 L 286.883218 124.997847 L 267.994015 124.997847 L 267.994015 120.230645 C 266.587972 122.175499 264.28391 123.699567 261.076697 124.802849 C 257.900273 125.911261 254.75977 126.460336 251.66545 126.460336 C 245.543522 126.460336 239.991194 124.869559 235.013599 121.688003 C 230.061662 118.485921 226.100112 114.257531 223.134081 108.997702 C 220.16805 103.717346 218.690167 97.887915 218.690167 91.504278 C 218.690167 85.033404 220.193708 79.137263 223.200791 73.810723 C 226.207874 68.489315 230.210477 64.260925 235.208598 61.120422 C 240.227245 57.964524 245.712863 56.384009 251.66545 56.384009 C 254.672534 56.384009 257.787379 57.010057 261.015119 58.267285 C 264.258253 59.498855 266.587972 60.91516 267.994015 62.516201 Z M 253.517937 107.730211 C 257.951588 107.730211 261.610377 106.226669 264.489172 103.219586 C 267.362835 100.191977 268.804798 96.286874 268.804798 91.504278 C 268.804798 86.808917 267.362835 82.934604 264.489172 79.881337 C 261.610377 76.807544 257.951588 75.273213 253.517937 75.273213 C 249.16639 75.273213 245.466549 76.807544 242.413282 79.881337 C 239.365146 82.934604 237.841078 86.808917 237.841078 91.504278 C 237.841078 96.286874 239.365146 100.191977 242.413282 103.219586 C 245.466549 106.226669 249.16639 107.730211 253.517937 107.730211 Z M 337.413504 56.676507 L 337.413504 76.217416 C 335.637991 75.586237 333.63669 75.273213 331.409601 75.273213 C 327.771338 75.273213 324.600046 76.62794 321.895724 79.332262 C 319.191401 82.036584 317.841806 86.095633 317.841806 91.504278 L 317.841806 124.997847 L 298.983392 124.997847 L 298.983392 57.877288 L 317.841806 57.877288 L 317.841806 62.516201 C 319.894423 60.289112 322.244668 58.708598 324.882281 57.779789 C 327.54555 56.845848 330.162636 56.384009 332.73867 56.384009 C 333.539191 56.384009 334.298659 56.384009 335.011943 56.384009 C 335.725227 56.384009 336.525748 56.481509 337.413504 56.676507 Z M 337.413504 56.676507 " stroke="#000000" stroke-width="18.281725" stroke-opacity="1" stroke-miterlimit="4"/></g><g fill="#ffffff" fill-opacity="1"><g transform="translate(4.922427, 89.33367)"><g><path d="M 34.609375 -76.109375 L 34.609375 -61.328125 C 31.304688 -61.328125 28.640625 -60.445312 26.609375 -58.6875 C 24.585938 -56.9375 23.578125 -54.816406 23.578125 -52.328125 L 23.578125 -51.109375 L 33.59375 -51.109375 L 33.59375 -37.84375 L 23.578125 -37.84375 L 23.578125 0 L 9.203125 0 L 9.203125 -37.84375 L 2.21875 -37.84375 L 2.21875 -51.109375 L 9.203125 -51.109375 L 9.203125 -51.8125 C 9.203125 -56.539062 10.347656 -60.722656 12.640625 -64.359375 C 14.941406 -68.003906 18.03125 -70.875 21.90625 -72.96875 C 25.789062 -75.0625 30.023438 -76.109375 34.609375 -76.109375 Z M 34.609375 -76.109375 "/></g></g></g><g fill="#ffffff" fill-opacity="1"><g transform="translate(40.03699, 89.33367)"><g><path d="M 12.140625 -60.109375 C 9.910156 -60.109375 7.96875 -60.914062 6.3125 -62.53125 C 4.664062 -64.15625 3.84375 -66.082031 3.84375 -68.3125 C 3.84375 -70.332031 4.664062 -72.148438 6.3125 -73.765625 C 7.96875 -75.390625 9.910156 -76.203125 12.140625 -76.203125 C 14.566406 -76.203125 16.609375 -75.410156 18.265625 -73.828125 C 19.921875 -72.242188 20.75 -70.40625 20.75 -68.3125 C 20.75 -66.082031 19.921875 -64.15625 18.265625 -62.53125 C 16.609375 -60.914062 14.566406 -60.109375 12.140625 -60.109375 Z M 19.4375 -51.109375 L 19.4375 0 L 5.0625 0 L 5.0625 -51.109375 Z M 19.4375 -51.109375 "/></g></g></g><g fill="#ffffff" fill-opacity="1"><g transform="translate(63.615305, 89.33367)"><g><path d="M 26.3125 -15.078125 L 16.59375 0 L -0.203125 0 L 18.3125 -27.21875 L 3.34375 -51.109375 L 18.21875 -51.109375 L 26.3125 -37.75 L 34.3125 -51.109375 L 49.28125 -51.109375 L 34.203125 -27.21875 L 52.828125 0 L 36.03125 0 Z M 26.3125 -15.078125 "/></g></g></g><g fill="#ffffff" fill-opacity="1"><g transform="translate(115.224667, 89.33367)"><g><path d="M 23.484375 -18.015625 L 19.4375 -14.171875 L 19.4375 0 L 5.0625 0 L 5.0625 -75.390625 L 19.4375 -75.390625 L 19.4375 -30.765625 L 41.1875 -51.109375 L 59 -51.109375 L 33.296875 -27.21875 L 60.109375 0 L 41.796875 0 Z M 23.484375 -18.015625 "/></g></g></g><g fill="#ffffff" fill-opacity="1"><g transform="translate(168.452633, 89.33367)"><g><path d="M 40.484375 -51.109375 L 54.859375 -51.109375 L 54.859375 0 L 40.484375 0 L 40.484375 -3.640625 C 39.398438 -2.160156 37.644531 -1 35.21875 -0.15625 C 32.789062 0.6875 30.394531 1.109375 28.03125 1.109375 C 23.375 1.109375 19.15625 -0.101562 15.375 -2.53125 C 11.601562 -4.957031 8.585938 -8.175781 6.328125 -12.1875 C 4.066406 -16.207031 2.9375 -20.644531 2.9375 -25.5 C 2.9375 -30.425781 4.082031 -34.910156 6.375 -38.953125 C 8.664062 -43.003906 11.71875 -46.226562 15.53125 -48.625 C 19.34375 -51.019531 23.507812 -52.21875 28.03125 -52.21875 C 30.320312 -52.21875 32.695312 -51.742188 35.15625 -50.796875 C 37.625 -49.859375 39.398438 -48.78125 40.484375 -47.5625 Z M 29.453125 -13.15625 C 32.828125 -13.15625 35.609375 -14.300781 37.796875 -16.59375 C 39.992188 -18.882812 41.09375 -21.851562 41.09375 -25.5 C 41.09375 -29.070312 39.992188 -32.019531 37.796875 -34.34375 C 35.609375 -36.675781 32.828125 -37.84375 29.453125 -37.84375 C 26.140625 -37.84375 23.320312 -36.675781 21 -34.34375 C 18.675781 -32.019531 17.515625 -29.070312 17.515625 -25.5 C 17.515625 -21.851562 18.675781 -18.882812 21 -16.59375 C 23.320312 -14.300781 26.140625 -13.15625 29.453125 -13.15625 Z M 29.453125 -13.15625 "/></g></g></g><g fill="#ffffff" fill-opacity="1"><g transform="translate(227.449247, 89.33367)"><g><path d="M 34.3125 -52.015625 L 34.3125 -37.140625 C 32.957031 -37.609375 31.4375 -37.84375 29.75 -37.84375 C 26.988281 -37.84375 24.578125 -36.8125 22.515625 -34.75 C 20.460938 -32.695312 19.4375 -29.613281 19.4375 -25.5 L 19.4375 0 L 5.0625 0 L 5.0625 -51.109375 L 19.4375 -51.109375 L 19.4375 -47.5625 C 20.988281 -49.25 22.773438 -50.445312 24.796875 -51.15625 C 26.816406 -51.863281 28.804688 -52.21875 30.765625 -52.21875 C 31.367188 -52.21875 31.941406 -52.21875 32.484375 -52.21875 C 33.023438 -52.21875 33.632812 -52.148438 34.3125 -52.015625 Z M 34.3125 -52.015625 "/></g></g></g><g fill="#ffffff" fill-opacity="1"><g transform="translate(83.938527, 132.117625)"><g><path d="M 1.3125 -0.609375 L 1.3125 -14 L 2.328125 -14.9375 L 13.984375 -14.3125 L 14.640625 -12.75 L 10 -7.28125 L 14 -2.453125 L 13.375 -0.890625 L 2.390625 0.34375 Z M 3.234375 -1.6875 L 11.421875 -2.59375 L 8.015625 -6.703125 L 8.03125 -7.921875 L 11.953125 -12.5 L 3.234375 -12.984375 Z M 3.234375 -1.6875 "/></g></g></g><g fill="#ffffff" fill-opacity="1"><g transform="translate(98.670008, 132.117625)"><g><path d="M -1.109375 -13.765625 L 0.28125 -15.046875 L 5.09375 -9.84375 L 3.71875 -8.546875 Z M 4.4375 0.421875 L 4.5625 -7.171875 L 4.890625 -7.828125 L 12.40625 -14.515625 L 13.6875 -13.078125 L 6.5 -6.703125 L 6.359375 0.453125 Z M 4.4375 0.421875 "/></g></g></g><g fill="#ffffff" fill-opacity="1"><g transform="translate(110.824495, 132.117625)"><g/></g></g><g fill="#ffffff" fill-opacity="1"><g transform="translate(115.897313, 132.117625)"><g><path d="M 0.09375 -11.125 L 1.8125 -12.015625 L 6.5625 -2.71875 L 12.140625 -14.484375 L 13.859375 -13.65625 L 7.46875 -0.15625 L 5.75 -0.140625 Z M 0.09375 -11.125 "/></g></g></g><g fill="#ffffff" fill-opacity="1"><g transform="translate(128.843154, 132.117625)"><g><path d="M 1.3125 -0.390625 L 2.015625 -14.328125 L 3.9375 -14.234375 L 3.234375 -0.28125 Z M 1.3125 -0.390625 "/></g></g></g><g fill="#ffffff" fill-opacity="1"><g transform="translate(133.692772, 132.117625)"><g><path d="M 0.90625 -1.890625 L 12.265625 -2.875 L 11.34375 -7 L 2.5625 -5.984375 L 1.5 -6.96875 L 1.78125 -13.71875 L 2.828125 -14.640625 L 13.515625 -13.640625 L 13.359375 -11.734375 L 3.65625 -12.625 L 3.453125 -8.015625 L 11.96875 -8.96875 L 13.015625 -8.234375 L 14.375 -2.234375 L 13.5 -1.0625 L 1.09375 0 Z M 0.90625 -1.890625 "/></g></g></g><g fill="#ffffff" fill-opacity="1"><g transform="translate(148.972114, 132.117625)"><g><path d="M 12.6875 -10.75 L 9.015625 -4.265625 L 7.3125 -4.34375 L 4.546875 -10.34375 L 2.796875 -0.59375 L 0.90625 -0.9375 L 3.203125 -13.703125 L 5 -13.921875 L 8.28125 -6.84375 L 12.34375 -14 L 14.109375 -13.703125 L 16.421875 -0.9375 L 14.53125 -0.59375 Z M 12.6875 -10.75 "/></g></g></g><g fill="#ffffff" fill-opacity="1"><g transform="translate(166.30088, 132.117625)"><g><path d="M 1.3125 -0.390625 L 2.015625 -14.328125 L 3.9375 -14.234375 L 3.234375 -0.28125 Z M 1.3125 -0.390625 "/></g></g></g><g fill="#ffffff" fill-opacity="1"><g transform="translate(171.150498, 132.117625)"><g><path d="M 7.3125 -12.5 L 6.8125 0.09375 L 4.890625 0.046875 L 5.421875 -12.5625 L -1.109375 -12.78125 L -1.03125 -14.71875 L 14.03125 -14.171875 L 13.984375 -12.28125 Z M 7.3125 -12.5 "/></g></g></g></svg>